<?xml version="1.0" standalone="no"?>
<!DOCTYPE svg PUBLIC "-//W3C//DTD SVG 20010904//EN"
 "http://www.w3.org/TR/2001/REC-SVG-20010904/DTD/svg10.dtd">
<svg version="1.0" xmlns="http://www.w3.org/2000/svg"
 width="260.000000pt" height="260.000000pt" viewBox="0 0 260.000000 260.000000"
 preserveAspectRatio="xMidYMid meet">
<metadata>
Created by potrace 1.11, written by Peter Selinger 2001-2013
</metadata>
<g transform="translate(0.000000,260.000000) scale(0.100000,-0.100000)"
fill="#000000" stroke="none">
<path d="M1150 2593 c-290 -45 -514 -147 -715 -325 -287 -254 -439 -607 -430
-998 2 -80 6 -158 10 -175 21 -100 28 -128 51 -200 52 -164 147 -328 269 -463
189 -211 427 -346 716 -408 117 -25 380 -25 499 0 493 105 869 455 1004 936 9
30 18 73 22 95 3 22 10 60 14 85 9 48 6 304 -4 355 -4 17 -11 53 -16 80 -29
142 -104 317 -195 456 -61 92 -247 279 -340 341 -137 91 -318 169 -460 198
-27 5 -63 12 -80 16 -35 7 -309 13 -345 7z"/>
</g>
</svg>
